<?xml version="1.0" encoding="UTF-8" standalone="no"?>
<!-- Created with Inkscape (http://www.inkscape.org/) -->

<svg
   xmlns:dc="http://purl.org/dc/elements/1.1/"
   xmlns:cc="http://creativecommons.org/ns#"
   xmlns:rdf="http://www.w3.org/1999/02/22-rdf-syntax-ns#"
   xmlns:svg="http://www.w3.org/2000/svg"
   xmlns="http://www.w3.org/2000/svg"
   xmlns:sodipodi="http://sodipodi.sourceforge.net/DTD/sodipodi-0.dtd"
   xmlns:inkscape="http://www.inkscape.org/namespaces/inkscape"
   width="210mm"
   height="297mm"
   viewBox="0 0 210 297"
   version="1.1"
   id="svg8"
   sodipodi:docname="phase_diagram.svg"
   inkscape:version="0.92.5 (2060ec1f9f, 2020-04-08)">
  <defs
     id="defs2">
    <marker
       inkscape:stockid="Arrow1Lend"
       orient="auto"
       refY="0.0"
       refX="0.0"
       id="marker2093"
       style="overflow:visible;"
       inkscape:isstock="true">
      <path
         id="path2091"
         d="M 0.0,0.0 L 5.0,-5.0 L -12.5,0.0 L 5.0,5.0 L 0.0,0.0 z "
         style="fill-rule:evenodd;stroke:#000000;stroke-width:1pt;stroke-opacity:1;fill:#000000;fill-opacity:1"
         transform="scale(0.8) rotate(180) translate(12.5,0)" />
    </marker>
    <marker
       inkscape:isstock="true"
       style="overflow:visible;"
       id="marker2035"
       refX="0.0"
       refY="0.0"
       orient="auto"
       inkscape:stockid="Arrow1Lend"
       inkscape:collect="always">
      <path
         transform="scale(0.8) rotate(180) translate(12.5,0)"
         style="fill-rule:evenodd;stroke:#000000;stroke-width:1pt;stroke-opacity:1;fill:#000000;fill-opacity:1"
         d="M 0.0,0.0 L 5.0,-5.0 L -12.5,0.0 L 5.0,5.0 L 0.0,0.0 z "
         id="path2033" />
    </marker>
    <marker
       inkscape:stockid="Arrow1Lend"
       orient="auto"
       refY="0.0"
       refX="0.0"
       id="marker1865"
       style="overflow:visible;"
       inkscape:isstock="true"
       inkscape:collect="always">
      <path
         id="path1863"
         d="M 0.0,0.0 L 5.0,-5.0 L -12.5,0.0 L 5.0,5.0 L 0.0,0.0 z "
         style="fill-rule:evenodd;stroke:#000000;stroke-width:1pt;stroke-opacity:1;fill:#000000;fill-opacity:1"
         transform="scale(0.8) rotate(180) translate(12.5,0)" />
    </marker>
    <marker
       inkscape:isstock="true"
       style="overflow:visible"
       id="marker1835"
       refX="0.0"
       refY="0.0"
       orient="auto"
       inkscape:stockid="Arrow1Lstart">
      <path
         transform="scale(0.8) translate(12.5,0)"
         style="fill-rule:evenodd;stroke:#000000;stroke-width:1pt;stroke-opacity:1;fill:#000000;fill-opacity:1"
         d="M 0.0,0.0 L 5.0,-5.0 L -12.5,0.0 L 5.0,5.0 L 0.0,0.0 z "
         id="path1833" />
    </marker>
    <marker
       inkscape:stockid="Arrow1Lstart"
       orient="auto"
       refY="0.0"
       refX="0.0"
       id="Arrow1Lstart"
       style="overflow:visible"
       inkscape:isstock="true"
       inkscape:collect="always">
      <path
         id="path1249"
         d="M 0.0,0.0 L 5.0,-5.0 L -12.5,0.0 L 5.0,5.0 L 0.0,0.0 z "
         style="fill-rule:evenodd;stroke:#000000;stroke-width:1pt;stroke-opacity:1;fill:#000000;fill-opacity:1"
         transform="scale(0.8) translate(12.5,0)" />
    </marker>
    <marker
       inkscape:isstock="true"
       style="overflow:visible;"
       id="marker1711"
       refX="0.0"
       refY="0.0"
       orient="auto"
       inkscape:stockid="Arrow1Lend"
       inkscape:collect="always">
      <path
         transform="scale(0.8) rotate(180) translate(12.5,0)"
         style="fill-rule:evenodd;stroke:#000000;stroke-width:1pt;stroke-opacity:1;fill:#000000;fill-opacity:1"
         d="M 0.0,0.0 L 5.0,-5.0 L -12.5,0.0 L 5.0,5.0 L 0.0,0.0 z "
         id="path1709" />
    </marker>
    <marker
       inkscape:stockid="Arrow1Lend"
       orient="auto"
       refY="0.0"
       refX="0.0"
       id="Arrow1Lend"
       style="overflow:visible;"
       inkscape:isstock="true"
       inkscape:collect="always">
      <path
         id="path1252"
         d="M 0.0,0.0 L 5.0,-5.0 L -12.5,0.0 L 5.0,5.0 L 0.0,0.0 z "
         style="fill-rule:evenodd;stroke:#000000;stroke-width:1pt;stroke-opacity:1;fill:#000000;fill-opacity:1"
         transform="scale(0.8) rotate(180) translate(12.5,0)" />
    </marker>
  </defs>
  <sodipodi:namedview
     id="base"
     pagecolor="#ffffff"
     bordercolor="#666666"
     borderopacity="1.0"
     inkscape:pageopacity="0.0"
     inkscape:pageshadow="2"
     inkscape:zoom="1.4"
     inkscape:cx="367.67717"
     inkscape:cy="631.24705"
     inkscape:document-units="mm"
     inkscape:current-layer="layer1"
     showgrid="false"
     inkscape:window-width="1920"
     inkscape:window-height="1016"
     inkscape:window-x="1920"
     inkscape:window-y="27"
     inkscape:window-maximized="1" />
  <metadata
     id="metadata5">
    <rdf:RDF>
      <cc:Work
         rdf:about="">
        <dc:format>image/svg+xml</dc:format>
        <dc:type
           rdf:resource="http://purl.org/dc/dcmitype/StillImage" />
        <dc:title></dc:title>
      </cc:Work>
    </rdf:RDF>
  </metadata>
  <g
     inkscape:label="Layer 1"
     inkscape:groupmode="layer"
     id="layer1">
    <path
       style="fill:none;stroke:#000000;stroke-width:0.26458332px;stroke-linecap:butt;stroke-linejoin:miter;stroke-opacity:1;marker-end:url(#marker1711);marker-start:url(#Arrow1Lstart)"
       d="m 94.078874,69.019091 c -0.80181,5.078121 0,62.808339 0,62.808339 h 69.490076"
       id="path815"
       inkscape:connector-curvature="0" />
    <path
       style="fill:none;stroke:#000000;stroke-width:0.26458332px;stroke-linecap:butt;stroke-linejoin:miter;stroke-opacity:1;marker-end:url(#marker1865)"
       d="M 94.078874,131.82743 40.609038,162.69825"
       id="path817"
       inkscape:connector-curvature="0" />
    <path
       style="fill:none;stroke:#000000;stroke-width:0.26458332px;stroke-linecap:butt;stroke-linejoin:miter;stroke-opacity:1"
       d="m 92.742524,96.547854 c -0.534538,0 -1.069078,0 -1.603616,0 -0.08909,0 -0.182753,-0.02817 -0.267269,0 -0.188989,0.063 -0.345551,0.204272 -0.53454,0.267269 -0.08452,0.02817 -0.18275,-0.02817 -0.267269,0 -0.188989,0.063 -0.345551,0.204274 -0.53454,0.267269 -0.08452,0.02817 -0.18275,-0.02817 -0.267269,0 -0.188989,0.063 -0.368784,0.156768 -0.534538,0.267269 -0.104833,0.06989 -0.147743,0.227428 -0.267271,0.267271 -0.169034,0.05635 -0.361678,-0.04322 -0.534538,0 -0.193265,0.04832 -0.345551,0.204272 -0.53454,0.267269 -0.08452,0.02817 -0.182751,-0.02817 -0.267269,0 -0.377976,0.125992 -0.682551,0.437907 -1.069078,0.534538 -1.216687,0 -0.01529,-0.125992 -0.801809,0.267271 -0.07968,0.03984 -0.187585,-0.03984 -0.267269,0 -0.225383,0.112689 -0.309158,0.421847 -0.53454,0.534538 -0.07968,0.03984 -0.187585,-0.03984 -0.267269,0 -0.112692,0.05635 -0.154578,0.210926 -0.267269,0.267269 -0.07968,0.03984 -0.187584,-0.03984 -0.267269,0 -0.112691,0.05634 -0.162438,0.197382 -0.267272,0.267271 -0.165753,0.110501 -0.368784,0.156766 -0.534537,0.267272 -0.104833,0.0699 -0.15458,0.21092 -0.267269,0.26727 -0.07969,0.0398 -0.187587,-0.0398 -0.267272,0 -0.320722,0.16036 -0.481084,0.64144 -0.801806,0.80181 -0.07968,0.0398 -0.187587,-0.0399 -0.267272,0 -0.22538,0.11269 -0.309157,0.42184 -0.534537,0.53453 -0.07968,0.0399 -0.187585,-0.0398 -0.267269,0 -0.07096,0.0355 -0.766329,0.73085 -0.801809,0.80181 -0.03984,0.0797 0.06299,0.20428 0,0.26727 -0.063,0.063 -0.204275,-0.063 -0.267269,0 -0.063,0.063 0.06299,0.20428 0,0.26727 -0.063,0.063 -0.204274,-0.063 -0.267272,0 -0.06299,0.063 0.063,0.20427 0,0.26727 -0.06299,0.063 -0.204271,-0.063 -0.267269,0 -0.06299,0.063 0.063,0.20428 0,0.26727 -0.06299,0.063 -0.204274,-0.063 -0.267268,0 -1.043083,1.04308 0.06186,0.14354 -0.267269,0.80181 -0.295476,0.59095 -0.165881,0.0829 -0.534541,0.26727 -0.590946,0.29547 -0.08294,0.16588 -0.267268,0.53454 -0.05635,0.11269 -0.178181,0.17818 -0.267269,0.26727 -0.08909,0.0891 -0.15458,0.21092 -0.267272,0.26727 -0.07968,0.0398 -0.204271,-0.063 -0.267269,0 -0.06299,0.063 0.063,0.20427 0,0.26727 -0.06299,0.063 -0.204274,-0.063 -0.267269,0 -0.063,0.063 0.03984,0.18758 0,0.26727 -0.06188,0.12376 -0.911886,0.91188 -1.069078,1.06907 -0.08909,0.0891 -0.210925,0.15458 -0.267268,0.26727 -0.03984,0.0797 0.06299,0.20428 0,0.26727 -0.140865,0.14087 -0.393677,0.12641 -0.534541,0.26727 -0.063,0.063 0.063,0.20428 0,0.26727 -0.55299,0.55299 0.02162,-0.84504 -0.534537,0.26727 -0.03984,0.0797 0.03984,0.18759 0,0.26727 -0.131501,0.263 -0.937581,0.80608 -1.069081,1.06908 -0.03984,0.0797 0.03984,0.18759 0,0.26727 -0.112689,0.22538 -0.421847,0.30916 -0.534538,0.53454 -0.03984,0.0797 0.03984,0.18758 0,0.26727 -0.122817,0.24563 -1.001477,0.86627 -1.069078,1.06907 -0.05635,0.16904 0.05635,0.36551 0,0.53454 -0.07968,0.23906 -0.421849,0.30916 -0.53454,0.53454 -0.03984,0.0797 0.03984,0.18759 0,0.26727 -0.05634,0.11269 -0.210923,0.15458 -0.267269,0.26727 -0.03984,0.0797 0.063,0.20428 0,0.26727 -0.063,0.063 -0.204274,-0.063 -0.267269,0 -0.125992,0.12599 0.07969,0.37517 0,0.53454 -0.112691,0.22538 -0.421849,0.30916 -0.53454,0.53454 -0.393261,0.78652 0.619154,-0.35188 -0.267269,0.53454 -0.08909,0.0891 -0.178179,0.17818 -0.267269,0.26727 -0.08909,0.0891 -0.210923,0.15458 -0.267269,0.26727 -0.03984,0.0797 0.03984,0.18758 0,0.26727 -0.05635,0.11269 -0.210926,0.15458 -0.267271,0.26727 -0.03984,0.0797 0.063,0.20427 0,0.26727 -0.063,0.063 -0.204272,-0.063 -0.267269,0 -0.063,0.063 0.03984,0.18758 0,0.26727 -0.05635,0.11269 -0.210923,0.15458 -0.267269,0.26726 -0.03984,0.0797 0.03984,0.18759 0,0.26728 -0.05635,0.11268 -0.210923,0.15457 -0.267269,0.26727 -0.03984,0.0797 0.03984,0.18758 0,0.26726 -0.05635,0.1127 -0.210926,0.15458 -0.267271,0.26727 -0.07969,0.15937 0.125992,0.40855 0,0.53454 -0.178179,0.0891 -0.35636,0.17818 -0.534538,0.26727 0,0.0891 0.063,0.20428 0,0.26727 -0.063,0.063 -0.227428,-0.0797 -0.267269,0 -0.119528,0.23905 0.119526,0.56276 0,0.80181 -0.05635,0.11269 -0.227428,0.14774 -0.267271,0.26727 -0.112689,0.33807 0.112691,0.73101 0,1.06908 -0.03984,0.11953 -0.197382,0.16244 -0.267269,0.26727 -0.110504,0.16575 -0.204275,0.34555 -0.267269,0.53454 -0.02817,0.0845 0.02817,0.18275 0,0.26727 -0.063,0.18898 -0.204274,0.34555 -0.267269,0.53454 -0.05635,0.16903 0.07968,0.37517 0,0.53454 -0.05635,0.11268 -0.227428,0.14774 -0.267272,0.26726 -0.05634,0.16904 0,0.35636 0,0.53454 0,0.0891 0.03984,0.18759 0,0.26727 -0.05634,0.11269 -0.210923,0.15458 -0.267268,0.26727 -0.07968,0.15937 0.07968,0.37517 0,0.53454 -0.05635,0.11269 -0.227428,0.14774 -0.267269,0.26727 -0.05635,0.16904 0.04321,0.36168 0,0.53454 -0.322657,1.29063 -0.127013,-0.0133 -0.534541,0.80181 -0.07968,0.15937 0.07969,0.37517 0,0.53454 -0.05634,0.11269 -0.210923,0.15458 -0.267268,0.26727 -0.03984,0.0797 0.03984,0.18758 0,0.26727 -0.05635,0.11269 -0.210924,0.15457 -0.267269,0.26727 -0.03984,0.0797 0.02817,0.18275 0,0.26726 -0.063,0.18899 -0.204274,0.34556 -0.267269,0.53454 -0.02817,0.0845 0.03984,0.18759 0,0.26727 -0.05635,0.11269 -0.210926,0.15458 -0.267272,0.26727 -0.07968,0.15937 0.125992,0.40855 0,0.53454 -0.06299,0.063 -0.204271,-0.063 -0.267268,0 -0.125992,0.12599 0.07968,0.37517 0,0.53454 -0.05635,0.11269 -0.210924,0.15458 -0.267269,0.26727 -0.03984,0.0797 0.03984,0.18759 0,0.26727 -0.05635,0.11269 -0.210926,0.15458 -0.267269,0.26727 -0.07968,0.15937 0.125992,0.40855 0,0.53454 -0.063,0.063 -0.204274,-0.063 -0.267272,0 -0.125992,0.12599 0.125992,0.40855 0,0.53454 -0.06299,0.063 -0.204271,-0.063 -0.267269,0 -0.133635,0.13363 0.133636,0.66817 0,0.80181 -0.06299,0.063 -0.204274,-0.063 -0.267268,0 -0.133636,0.13363 0.133633,0.66817 0,0.80181 -0.063,0.063 -0.204275,-0.063 -0.267269,0 -0.05464,0.0546 0.05298,0.69583 0,0.80181 -0.05635,0.11268 -0.210926,0.15457 -0.267272,0.26726 -0.03984,0.0797 0.03984,0.18759 0,0.26727 -0.05635,0.11269 -0.210923,0.15458 -0.267269,0.26727 -0.08431,0.16862 0.08431,1.16774 0,1.33635 -0.05635,0.11269 -0.210923,0.15458 -0.267268,0.26727 -0.04259,0.0852 0,1.09748 0,1.33635"
       id="path821"
       inkscape:connector-curvature="0" />
    <path
       style="fill:none;stroke:#000000;stroke-width:0.26458332px;stroke-linecap:butt;stroke-linejoin:miter;stroke-opacity:1"
       d="m 68.420998,146.52725 c -0.623628,-0.62362 -1.247257,-1.24725 -1.870887,-1.87088 -0.08909,-0.0891 -0.178179,-0.17818 -0.267269,-0.26727 -0.08909,-0.0891 -0.210923,-0.15458 -0.267269,-0.26727 -0.03984,-0.0797 0.07968,-0.22743 0,-0.26727 -0.159369,-0.0797 -0.375171,0.0797 -0.534541,0 -0.07968,-0.0398 0.03984,-0.18759 0,-0.26727 -0.05634,-0.11269 -0.178178,-0.17818 -0.267268,-0.26727 -0.08909,-0.0891 -0.154578,-0.21092 -0.267269,-0.26727 -0.07968,-0.0398 -0.187585,0.0398 -0.267269,0 -0.225383,-0.11269 -0.324877,-0.39476 -0.53454,-0.53454 -0.331507,-0.221 -0.727435,-0.32955 -1.069078,-0.53454 -0.267269,-0.17818 -0.534538,-0.35636 -0.80181,-0.53454 -0.08909,-0.0891 -0.162438,-0.19738 -0.267269,-0.26727 -0.165753,-0.1105 -0.368784,-0.15676 -0.534537,-0.26727 -0.104833,-0.0699 -0.147744,-0.22742 -0.267272,-0.26726 -0.169034,-0.0564 -0.365503,0.0563 -0.534537,0 -0.119529,-0.0399 -0.147744,-0.22743 -0.267269,-0.26728 -0.169037,-0.0563 -0.375171,0.0797 -0.534541,0 -0.07968,-0.0398 0.063,-0.20427 0,-0.26726 -0.05464,-0.0546 -0.695838,0.053 -0.801809,0 -0.112691,-0.0563 -0.154577,-0.21093 -0.267269,-0.26727 -0.159369,-0.0797 -0.365503,0.0563 -0.53454,0 -0.530085,-0.1767 -0.538991,-0.35785 -1.069078,-0.53454 -0.169034,-0.0564 -0.375169,0.0797 -0.534538,0 -0.112691,-0.0564 -0.15458,-0.21093 -0.267269,-0.26727 -0.144991,-0.0725 -0.995947,0.0731 -1.069078,0 -0.063,-0.063 0.063,-0.20428 0,-0.26727 -0.125992,-0.12599 -0.375171,0.0797 -0.53454,0 -0.112691,-0.0564 -0.154578,-0.21093 -0.267269,-0.26727 -0.159369,-0.0797 -0.375171,0.0797 -0.53454,0 -0.112689,-0.0564 -0.154578,-0.21093 -0.267269,-0.26727 -0.07968,-0.0398 -0.178178,0 -0.267269,0 -0.178181,0 -0.365503,0.0563 -0.53454,0 -0.582248,0.0999 -0.08909,-0.44545 -0.267269,-0.53454 -0.227103,-0.11355 -1.070663,0.0886 -1.336347,0 -0.119528,-0.0398 -0.178181,-0.17818 -0.267269,-0.26727 -0.178181,-0.0891 -0.341278,-0.21895 -0.53454,-0.26727 -0.259289,-0.0648 -0.548254,0.0845 -0.801809,0 -0.188987,-0.063 -0.345552,-0.20427 -0.534538,-0.26727 -0.240543,-0.0802 -0.561266,0.0802 -0.801809,0 -0.119526,-0.0398 -0.154578,-0.21092 -0.267269,-0.26727 -0.159369,-0.0797 -0.375171,0.0797 -0.53454,0 -0.112689,-0.0563 -0.147744,-0.22743 -0.267269,-0.26727 -0.459796,-0.15326 -1.174084,0.21477 -1.603616,0 -0.178181,-0.0891 -0.126407,-0.39367 -0.267272,-0.53454 -0.0086,-0.009 -0.736989,0 -0.801806,0 -1.7818,0 -3.563596,0 -5.345393,0 -0.890897,0 -1.781797,0 -2.672694,0 -0.226285,0 -0.925393,-0.0479 -1.069078,0 -0.119528,0.0398 -0.15458,0.21093 -0.267269,0.26727 -0.07968,0.0399 -0.178181,0 -0.267271,0 -0.08909,0 -0.178179,0 -0.267269,0 -0.534538,0 -1.069078,0 -1.603616,0 -0.08909,0 -0.178181,0 -0.267271,0 -0.08909,0 -0.204272,-0.063 -0.267269,0 -0.063,0.063 0.063,0.20428 0,0.26727 -0.125992,0.126 -0.375171,-0.0797 -0.534538,0 -0.112691,0.0563 -0.15458,0.21093 -0.267271,0.26727 -0.15937,0.0797 -0.408546,-0.12599 -0.534538,0 -0.063,0.063 0.03984,0.18759 0,0.26727 -0.20379,0.40758 -0.702352,0.26727 -1.069078,0.26727"
       id="path823"
       inkscape:connector-curvature="0" />
    <path
       style="fill:none;stroke:#000000;stroke-width:0.26458332px;stroke-linecap:butt;stroke-linejoin:miter;stroke-opacity:1"
       d="m 92.742524,96.547851 c 1.961626,-0.894588 1.901844,-0.801806 3.474506,-0.801806 0.120367,0 0.720468,-0.04067 0.801806,0 0.112692,0.05635 0.15458,0.210923 0.267272,0.267269 0.159369,0.07968 0.375168,-0.07968 0.534537,0 0.112692,0.05635 0.154581,0.210923 0.267269,0.267269 0.165553,0.08278 0.99,-0.07908 1.069078,0 0.063,0.063 -0.06299,0.204274 0,0.267271 0.0013,0.0013 0.79152,-0.0021 0.80181,0 0.276258,0.05525 0.528498,0.19894 0.801808,0.267269 0.0864,0.02162 0.18759,-0.03984 0.26727,0 0.11269,0.05635 0.15458,0.210923 0.26727,0.267269 0.21382,0.106907 0.58799,-0.106908 0.80181,0 0.11269,0.05635 0.15458,0.210923 0.26727,0.267269 0.0813,0.04067 0.68144,0 0.80181,0 0.0648,0 0.79321,-0.0086 0.8018,0 0.063,0.063 -0.063,0.204274 0,0.267271 0.063,0.063 0.17819,0 0.26727,0 0.18945,0 1.53452,-0.03455 1.60362,0 0.11269,0.05635 0.15458,0.210923 0.26727,0.267269 0.21382,0.106908 0.588,-0.106908 0.80181,0 0.11269,0.05635 0.15458,0.210923 0.26727,0.267269 0.16181,0.0809 1.66038,-0.07017 1.87089,0 0.30473,0.101579 0.50356,0.415242 0.80181,0.53454 0.23382,0.09353 1.2833,-0.06406 1.60361,0 0.27626,0.05525 0.5285,0.19894 0.80181,0.267269 0.0864,0.02162 0.18275,-0.02817 0.26727,0 0.18899,0.063 0.34555,0.204274 0.53454,0.267269 0.23718,0.07906 1.16134,-0.08751 1.33635,0 0.11269,0.05635 0.15457,0.210926 0.26727,0.267269 0.15936,0.07968 0.45485,-0.159367 0.53454,0 0.0797,0.159369 -0.0797,0.375171 0,0.534543 0.0398,0.0797 0.20427,-0.063 0.26726,0 0.063,0.063 -0.063,0.20427 0,0.26727 0.063,0.063 0.18759,-0.0398 0.26727,0 0.11269,0.0563 0.17818,0.17818 0.26727,0.26726 0.17818,0 0.36551,-0.0563 0.53454,0 0.11953,0.0399 0.15458,0.21093 0.26727,0.26728 0.0797,0.0398 0.20428,-0.063 0.26727,0 0.063,0.063 -0.063,0.20427 0,0.26727 0.12599,0.12599 0.37517,-0.0797 0.53454,0 0.22538,0.11269 0.32488,0.39476 0.53454,0.53453 -0.0304,0.50633 0.62363,0.17818 0.80181,0.26727 0.11269,0.0563 0.15458,0.21093 0.26727,0.26727 0.0797,0.0398 0.20427,-0.063 0.26727,0 0.063,0.063 -0.063,0.20428 0,0.26727 0.063,0.063 0.20427,-0.063 0.26727,0 0.063,0.063 -0.0797,0.22743 0,0.26727 0.15937,0.0797 0.3655,-0.0563 0.53454,0 0.23905,0.0797 0.30915,0.42185 0.53453,0.53454 0.0797,0.0398 0.18759,-0.0398 0.26727,0 0.1127,0.0563 0.15458,0.21092 0.26728,0.26727 0.0797,0.0398 0.18758,-0.0398 0.26726,0 0.1127,0.0564 0.15458,0.21093 0.26727,0.26727 0.0797,0.0398 0.18759,-0.0398 0.26727,0 0.22538,0.11269 0.30916,0.42185 0.53454,0.53454 0.0797,0.0398 0.18759,-0.0398 0.26727,0 0.11269,0.0563 0.15458,0.21092 0.26727,0.26727 0.0797,0.0398 0.20427,-0.063 0.26727,0 0.063,0.063 -0.063,0.20427 0,0.26727 0.063,0.063 0.20427,-0.063 0.26727,0 0.063,0.063 -0.063,0.20427 0,0.26727 0.063,0.063 0.20427,-0.063 0.26727,0 0.063,0.063 0,0.17818 0,0.26727 0.0891,0 0.18758,-0.0398 0.26727,0 0.11269,0.0563 0.17818,0.17818 0.26727,0.26727 0.0891,0.0891 0.21092,0.15458 0.26727,0.26727 0.0398,0.0797 -0.063,0.20427 0,0.26727 0.063,0.063 0.18758,-0.0399 0.26727,0 1.11231,0.55615 -0.28572,-0.0184 0.26727,0.53453 0.55299,0.55299 -0.0216,-0.84504 0.53454,0.26728 0,0.71271 -0.0891,-0.0891 0.26727,0.26726 0.063,0.063 -0.063,0.20428 0,0.26727 0.063,0.063 0.20427,-0.063 0.26726,0 0.063,0.063 -0.063,0.20428 0,0.26727 0.063,0.063 0.20428,-0.063 0.26728,0 0.063,0.063 -0.063,0.20428 0,0.26727 0.063,0.063 0.17817,0 0.26726,0 0,0.0891 -0.063,0.20428 0,0.26727 0.063,0.063 0.20428,-0.063 0.26727,0 0.063,0.063 -0.0398,0.18759 0,0.26727 0.55616,1.11231 -0.0184,-0.28572 0.53454,0.26727 0.063,0.063 -0.063,0.20427 0,0.26727 0.063,0.063 0.18759,-0.0398 0.26727,0 0.2842,0.1421 0.25035,0.39244 0.53454,0.53454 0.0797,0.0398 0.20427,-0.063 0.26727,0 0.063,0.063 -0.063,0.20427 0,0.26727 0.71272,0 -0.0891,-0.0891 0.26727,0.26727 0.063,0.063 0.20427,-0.063 0.26727,0 0.063,0.063 -0.063,0.20427 0,0.26727 0.063,0.063 0.20427,-0.063 0.26727,0 0.063,0.063 -0.063,0.20427 0,0.26727 0.12599,0.12599 0.40855,-0.12599 0.53454,0 0.063,0.063 -0.063,0.20427 0,0.26727 0.55299,0.55299 -0.0216,-0.84505 0.53454,0.26727 0,0.71272 -0.0891,-0.0891 0.26727,0.26727 0.063,0.063 -0.063,0.20427 0,0.26727 0.063,0.063 0.20427,-0.063 0.26727,0 0.063,0.063 -0.063,0.20427 0,0.26726 0.063,0.063 0.18758,-0.0398 0.26727,0 0.3807,0.19036 0.15383,0.34419 0.53454,0.53454 0.0797,0.0399 0.20427,-0.063 0.26726,0 0.063,0.063 -0.063,0.20428 0,0.26727 0.063,0.063 0.20428,-0.063 0.26727,0 0.063,0.063 -0.0398,0.18759 0,0.26727 0.0564,0.11269 0.17818,0.17818 0.26727,0.26727 0.0891,0.0891 0.15458,0.21093 0.26727,0.26727 0.71272,0 -0.0891,-0.0891 0.26727,0.26727 0.063,0.063 0.20428,-0.063 0.26727,0 0.063,0.063 -0.063,0.20428 0,0.26727 0.063,0.063 0.20428,-0.063 0.26727,0 0.063,0.063 -0.063,0.20427 0,0.26727 0.063,0.063 0.18759,-0.0398 0.26727,0 0.11269,0.0563 0.15458,0.21093 0.26727,0.26727 0.0797,0.0398 0.20427,-0.063 0.26727,0 0.063,0.063 -0.0398,0.18759 0,0.26727 0.29547,0.59095 0.16588,0.0829 0.53454,0.26727 0.22538,0.11269 0.30916,0.42185 0.53454,0.53454 0.0797,0.0398 0.18275,-0.0282 0.26727,0 0.18899,0.063 0.34555,0.20427 0.53454,0.26727 0.0845,0.0282 0.20427,-0.063 0.26727,0 0.063,0.063 -0.063,0.20427 0,0.26727 0.12599,0.12599 0.37517,-0.0797 0.53454,0 0.11269,0.0563 0.15457,0.21092 0.26726,0.26727 0.15937,0.0797 0.40855,-0.12599 0.53455,0 0.063,0.063 -0.063,0.20427 0,0.26727 0.12599,0.12599 0.40854,-0.12599 0.53453,0 0.063,0.063 -0.063,0.20427 0,0.26727 0.12599,0.12599 0.37517,-0.0797 0.53454,0 0.11269,0.0563 0.15458,0.21092 0.26727,0.26726 0.15937,0.0797 0.37517,-0.0797 0.53454,0 0.11269,0.0564 0.15458,0.21093 0.26727,0.26728 0.15937,0.0797 0.40855,-0.126 0.53454,0 0.063,0.063 -0.063,0.20427 0,0.26727 0.13363,0.13363 0.66817,-0.13364 0.80181,0 0.063,0.063 -0.063,0.20427 0,0.26726 0.063,0.063 0.18758,-0.0398 0.26727,0 0.11269,0.0563 0.15458,0.21093 0.26727,0.26727 0.10597,0.053 0.74717,-0.0546 0.80181,0 0.063,0.063 -0.063,0.20428 0,0.26727 0.12599,0.126 0.37517,-0.0797 0.53454,0 0.11268,0.0564 0.15457,0.21093 0.26726,0.26727 0.15937,0.0797 0.37518,-0.0797 0.53454,0 0.11269,0.0563 0.15458,0.21093 0.26727,0.26727 0.10597,0.053 0.74717,-0.0546 0.80181,0 0.063,0.063 -0.063,0.20428 0,0.26727 0.0643,0.0643 1.00477,-0.0643 1.06908,0 0.063,0.063 -0.063,0.20428 0,0.26727 0.063,0.063 0.17818,0 0.26727,0 0.0891,0 0.17818,0 0.26727,0 0.20431,0 1.79569,-0.0376 1.87089,0 0.11269,0.0564 0.15457,0.21093 0.26726,0.26727 0.0691,0.0345 1.41418,0 1.60362,0 1.15817,0 2.31634,0 3.47451,0 0.18944,0 1.53451,-0.0346 1.60361,0 0.11269,0.0563 0.15458,0.21092 0.26727,0.26727 0.0797,0.0398 0.17818,0 0.26727,0 0.0891,0 0.17818,0 0.26727,0 0.44545,0 0.8909,0 1.33635,0 0.0891,0 0.17818,0 0.26727,0 0.0891,0 0.18758,-0.0398 0.26727,0 0.11269,0.0563 0.15458,0.21093 0.26727,0.26727 0.0813,0.0407 0.68144,0 0.80181,0 0.62362,0 1.24725,0 1.87088,0"
       id="path825"
       inkscape:connector-curvature="0" />
    <path
       style="fill:none;stroke:#000000;stroke-width:0.26458332px;stroke-linecap:butt;stroke-linejoin:miter;stroke-opacity:1"
       d="m 128.28937,131.82743 c 1.9246,-0.11012 0.28256,-1.09965 0.53454,-1.60362 0.11269,-0.22538 0.42185,-0.30915 0.53454,-0.53454 0.0398,-0.0797 -0.0398,-0.18758 0,-0.26727 0.0563,-0.11269 0.22743,-0.14774 0.26727,-0.26726 0.0563,-0.16904 -0.0797,-0.37518 0,-0.53454 0.0398,-0.0797 0.22743,0.0797 0.26727,0 0.0797,-0.15937 -0.0564,-0.36551 0,-0.53454 0.0797,-0.23906 0.42185,-0.30916 0.53454,-0.53454 0.0797,-0.15937 -0.0797,-0.37517 0,-0.53454 0.0563,-0.11269 0.19738,-0.16244 0.26727,-0.26727 0.1105,-0.16576 0.15676,-0.36879 0.26727,-0.53454 0.0699,-0.10483 0.21092,-0.15458 0.26727,-0.26727 0.0398,-0.0797 -0.0398,-0.18759 0,-0.26727 0.0563,-0.11269 0.19738,-0.16244 0.26727,-0.26727 0.41612,-0.62418 0.65295,-1.51397 1.06907,-2.13815 0.0699,-0.10484 0.21093,-0.15458 0.26727,-0.26727 0.126,-0.25199 0.14128,-0.54983 0.26727,-0.80181 0.6116,-1.22319 -0.11077,1.13413 0.53454,-0.80181 0.0282,-0.0845 -0.0398,-0.18759 0,-0.26727 0.0564,-0.11269 0.19738,-0.16244 0.26727,-0.26727 0.1105,-0.16575 0.15677,-0.36879 0.26727,-0.53454 0.0699,-0.10483 0.21092,-0.15458 0.26727,-0.26727 0.0398,-0.0797 -0.0398,-0.18758 0,-0.26727 0.11269,-0.22538 0.39476,-0.32487 0.53454,-0.53454 0.1105,-0.16575 0.15677,-0.36878 0.26727,-0.53454 0.0699,-0.10483 0.19738,-0.16243 0.26727,-0.26727 0.1105,-0.16575 0.15677,-0.36878 0.26727,-0.53453 0.13977,-0.20967 0.39476,-0.32488 0.53454,-0.53455 0.1105,-0.16575 0.1264,-0.39367 0.26727,-0.53453 0.14086,-0.14087 0.39367,-0.12641 0.53454,-0.26727 0.063,-0.063 -0.0494,-0.19314 0,-0.26727 0.17818,-0.17818 0.35636,-0.35636 0.53453,-0.53454 0,-0.0891 -0.0398,-0.18759 0,-0.26727 0.0564,-0.11269 0.17819,-0.17818 0.26727,-0.26727 0.0891,-0.0891 0.17818,-0.17818 0.26728,-0.26727 0.35635,-0.35636 0.71271,-0.71272 1.06907,-1.06908 0.17818,-0.17818 0.38335,-0.33295 0.53454,-0.53454 0.11953,-0.15937 0.15677,-0.36878 0.26727,-0.53454 0.20966,-0.31449 0.57502,-0.49942 0.80181,-0.80181 0.11953,-0.15936 0.12641,-0.39367 0.26727,-0.53453 0.14086,-0.14087 0.37517,-0.14775 0.53454,-0.26727 0.0964,-0.0723 0.92564,-0.87783 1.06908,-1.06908 0.19273,-0.25698 0.3418,-0.54484 0.53453,-0.80181 0.10704,-0.14271 0.94292,-1.006 1.06908,-1.06908 0.0797,-0.0398 0.20428,0.063 0.26727,0 0.063,-0.063 -0.063,-0.20427 0,-0.26727 0.063,-0.063 0.20427,0.063 0.26727,0 0.063,-0.063 -0.063,-0.20427 0,-0.26727 0.14087,-0.14086 0.36879,-0.15676 0.53454,-0.26727 0.10483,-0.0699 0.15458,-0.21092 0.26727,-0.26727 0.0797,-0.0398 0.18759,0.0399 0.26727,0 0.11269,-0.0563 0.16244,-0.19738 0.26727,-0.26726 0.16575,-0.11051 0.36879,-0.15677 0.53454,-0.26728 0.61159,-0.40772 -0.16712,-0.21156 0.80181,-0.53453 0.0845,-0.0282 0.18084,0.0216 0.26727,0 0.27331,-0.0683 0.52849,-0.19894 0.80181,-0.26727 0.0864,-0.0216 0.18758,0.0398 0.26727,0 0.22538,-0.11269 0.30915,-0.42185 0.53453,-0.53454 0.0797,-0.0398 0.17818,0 0.26727,0 0.17818,-0.0891 0.36879,-0.15677 0.53454,-0.26727 0.10483,-0.0699 0.16244,-0.19738 0.26727,-0.26727 0.16575,-0.1105 0.36879,-0.15677 0.53454,-0.26727 0.10483,-0.0699 0.15458,-0.21093 0.26727,-0.26727 0.0797,-0.0398 0.18758,0.0398 0.26727,0 0.22538,-0.11269 0.30916,-0.42185 0.53454,-0.53454 0.0797,-0.0398 0.18758,0.0398 0.26727,0 0.11269,-0.0563 0.15458,-0.21092 0.26727,-0.26727 0.0797,-0.0398 0.19314,0.0494 0.26727,0 0.20966,-0.13977 0.32487,-0.39476 0.53454,-0.53454 0.0741,-0.0494 0.18758,0.0398 0.26727,0 0.22538,-0.11269 0.30915,-0.42185 0.53454,-0.53454 0.0797,-0.0398 0.18758,0.0399 0.26726,0 0.1127,-0.0563 0.15458,-0.21092 0.26727,-0.26727 0.0797,-0.0398 0.18759,0.0398 0.26728,0 0.11268,-0.0563 0.15457,-0.21092 0.26726,-0.26727 0.0797,-0.0398 0.18759,0.0399 0.26727,0 0.22539,-0.11269 0.29549,-0.45485 0.53454,-0.53454 0.16904,-0.0563 0.36551,0.0563 0.53454,0 0.23905,-0.0797 0.30916,-0.42185 0.53454,-0.53453 0.65827,-0.32914 -0.24127,0.77581 0.80181,-0.26728 0.063,-0.063 -0.0797,-0.22742 0,-0.26726 0.15937,-0.0797 0.3655,0.0563 0.53454,0 0.11952,-0.0398 0.15458,-0.21093 0.26727,-0.26727 0.0797,-0.03985 0.19314,0.0494 0.26727,0 0.63898,-0.425993 0.33795,-0.61903 1.06907,-0.801812 0.17286,-0.04321 0.37518,0.07968 0.53454,0 0.0797,-0.03984 -0.063,-0.204274 0,-0.267269 0.063,-0.063 0.19315,0.04942 0.26727,0 0.20967,-0.139777 0.32488,-0.394764 0.53454,-0.53454 0.0741,-0.04942 0.18275,0.02817 0.26727,0 1.93595,-0.645314 -0.42138,0.07705 0.80181,-0.534538 0.15937,-0.07968 0.37517,0.07968 0.53454,0 0.11269,-0.05635 0.15458,-0.210923 0.26727,-0.267269 0.0797,-0.03984 0.17818,0 0.26727,0 0.0891,-0.08909 0.15458,-0.210926 0.26727,-0.267271 0.0797,-0.03984 0.18758,0.03984 0.26727,0 0.11269,-0.05635 0.14774,-0.227426 0.26727,-0.267269 0.16903,-0.05635 0.3655,0.05635 0.53454,0 0.23905,-0.07968 0.29548,-0.454853 0.53454,-0.534538 0.25355,-0.08452 0.54825,0.08452 0.8018,0 0.18899,-0.063 0.34555,-0.204274 0.53454,-0.267271 0.16904,-0.05635 0.37517,0.07968 0.53454,0 0.11269,-0.05635 0.15458,-0.210924 0.26727,-0.267269 0.16799,-0.08399 0.90109,0.08399 1.06908,0 0.11269,-0.05635 0.17818,-0.178179 0.26727,-0.267269"
       id="path827"
       inkscape:connector-curvature="0" />
    <path
       style="fill:none;stroke:#000000;stroke-width:0.26458332px;stroke-linecap:butt;stroke-linejoin:miter;stroke-opacity:1"
       d="m 92.742524,96.547849 c -1.381323,-0.55399 -2.404758,-0.534535 -3.741772,-0.534535 -0.178181,0 -0.356359,0 -0.53454,0 -0.08909,0 -0.187584,-0.03984 -0.267269,0 -0.112691,0.05635 -0.154578,0.210923 -0.267269,0.267269 -0.159369,0.07968 -0.375171,-0.07968 -0.53454,0 -0.112692,0.05635 -0.154578,0.210925 -0.267269,0.267271 -0.170791,0.08539 -0.853953,-0.07171 -1.069078,0 -0.188989,0.063 -0.368787,0.156766 -0.53454,0.267269 -0.104831,0.06989 -0.147741,0.227428 -0.267269,0.267269 -0.247161,0.08239 -1.427531,-0.08804 -1.603616,0 -0.112691,0.05635 -0.15458,0.210923 -0.267272,0.267269 -0.167983,0.08399 -0.901091,-0.08399 -1.069078,0 -0.112688,0.05635 -0.14774,0.227428 -0.267268,0.267271 -0.169037,0.05635 -0.35636,0 -0.534538,0 -0.08909,0 -0.187587,-0.03984 -0.267272,0 -0.22538,0.112689 -0.309157,0.421847 -0.534537,0.534538 -0.159369,0.07968 -0.375172,-0.07968 -0.534541,0 -0.112688,0.05635 -0.154577,0.210923 -0.267269,0.267269 -0.07968,0.03984 -0.187584,-0.03984 -0.267268,0 -0.112692,0.05634 -0.154581,0.210926 -0.267269,0.267271 -0.07969,0.03984 -0.204274,-0.063 -0.267272,0 -0.06299,0.063 0.063,0.204272 0,0.267269 -0.06299,0.063 -0.187584,-0.03984 -0.267269,0 -0.22538,0.112691 -0.309157,0.421849 -0.534537,0.534538 -0.07968,0.03984 -0.187587,-0.03984 -0.267272,0 -1.112311,0.556153 0.285721,-0.01844 -0.267269,0.534543 -0.06299,0.063 -0.187584,-0.03985 -0.267268,0 -0.409345,0.20467 -0.209011,0.47628 -0.534541,0.80181 -0.06299,0.063 -0.204271,-0.063 -0.267269,0 -0.06299,0.063 0.063,0.20427 0,0.26727 -0.140864,0.14086 -0.368784,0.15676 -0.534537,0.26726 -0.104834,0.0699 -0.178181,0.17819 -0.267272,0.26727 -0.178178,0.0891 -0.368784,0.15677 -0.534538,0.26727 -0.104833,0.0699 -0.15458,0.21093 -0.267268,0.26727 -0.07968,0.0398 -0.187587,-0.0398 -0.267272,0 -0.123767,0.0619 -0.911884,0.91189 -1.069078,1.06908 -0.08909,0.0891 -0.154577,0.21092 -0.267269,0.26727 -0.36866,0.18433 -0.239064,-0.32368 -0.53454,0.26727 -0.03984,0.0797 0.063,0.20427 0,0.26727 -0.063,0.063 -0.187584,-0.0398 -0.267269,0 -0.263001,0.1315 -0.806077,0.93758 -1.069078,1.06908 -0.07968,0.0398 -0.227428,-0.0797 -0.267269,0 -0.07968,0.15937 0.07968,0.37517 0,0.53454 -0.03984,0.0797 -0.187584,-0.0398 -0.267269,0 -0.112691,0.0563 -0.15458,0.21092 -0.267271,0.26727 -0.07968,0.0398 -0.204272,-0.063 -0.267269,0 -0.063,0.063 0.03984,0.18758 0,0.26727 -0.295474,0.59094 -0.165878,0.0829 -0.534538,0.26727 -0.112691,0.0563 -0.178181,0.17818 -0.267271,0.26726 -0.08909,0.0891 -0.178179,0.17819 -0.267269,0.26728 -0.08909,0.0891 -0.210923,0.15457 -0.267269,0.26726 -0.03984,0.0797 0.063,0.20428 0,0.26727 -0.063,0.063 -0.204274,-0.063 -0.267269,0 -0.063,0.063 0.063,0.20428 0,0.26727 -0.063,0.063 -0.187587,-0.0398 -0.267271,0 -0.142743,0.0714 -0.661099,0.6611 -0.801807,0.80181 -0.08909,0.0891 -0.178181,0.17818 -0.267271,0.26727 0,0.0891 0.063,0.20427 0,0.26727 -0.063,0.063 -0.187585,-0.0398 -0.267269,0 -0.07096,0.0355 -0.766326,0.73085 -0.801809,0.80181 -0.03984,0.0797 0.063,0.20427 0,0.26727 -0.063,0.063 -0.187585,-0.0398 -0.267269,0 -1.112311,0.55615 0.285721,-0.0184 -0.267269,0.53454 -0.063,0.063 -0.187584,-0.0398 -0.267269,0 -1.112314,0.55615 0.285721,-0.0184 -0.267272,0.53454 -0.06299,0.063 -0.187584,-0.0399 -0.267268,0 -0.590947,0.29547 -0.08294,0.16588 -0.267269,0.53454 -0.556157,1.11231 0.01844,-0.28573 -0.534541,0.26726 -0.06299,0.063 0.03984,0.18759 0,0.26728 -0.07137,0.14274 -0.661098,0.66109 -0.801806,0.8018 -0.290907,0.29091 -0.770245,0.86986 -1.069078,1.06908 -0.07413,0.0494 -0.187587,-0.0398 -0.267272,0 -1.112311,0.55616 0.285721,-0.0184 -0.267269,0.53454 -0.552989,0.55299 0.02162,-0.84504 -0.534537,0.26727 -0.03984,0.0797 0.06299,0.20427 0,0.26727 -0.063,0.063 -0.204274,-0.063 -0.267272,0 -0.06299,0.063 0.063,0.20427 0,0.26727 -0.06299,0.063 -0.204271,-0.063 -0.267269,0 0,0.71272 0.08909,-0.0891 -0.267268,0.26727 -0.063,0.063 0.03984,0.18758 0,0.26727 -0.112692,0.22538 -0.421849,0.30916 -0.534541,0.53454 -0.03984,0.0797 0.063,0.20427 0,0.26727 -0.06299,0.063 -0.204271,-0.063 -0.267269,0 -0.063,0.063 0.063,0.20427 0,0.26727 -0.063,0.063 -0.204274,-0.063 -0.267268,0 -0.063,0.063 0.03984,0.18758 0,0.26726 -0.05635,0.1127 -0.210926,0.15458 -0.267269,0.26728 -0.07968,0.15937 0.125992,0.40854 0,0.53453 -0.063,0.063 -0.204275,-0.063 -0.267272,0 -0.06299,0.063 0.03984,0.18759 0,0.26727 -0.05635,0.11269 -0.210923,0.15458 -0.267269,0.26727 -0.106907,0.21382 0.106908,0.588 0,0.80181 -0.05635,0.11269 -0.210923,0.15458 -0.267269,0.26727 -0.03984,0.0797 0.063,0.20427 0,0.26727 -0.552989,0.55299 0.02162,-0.84504 -0.53454,0.26727 -0.03984,0.0797 0.03984,0.18759 0,0.26727 -0.461817,0.92364 -0.07272,-0.3891 -0.534538,0.53454 -0.03984,0.0797 0,0.17818 0,0.26727 -0.08909,0.17818 -0.156768,0.36878 -0.267271,0.53454 -0.205592,0.30839 -0.596215,0.49342 -0.801807,0.80181 -0.110503,0.16575 -0.126407,0.39367 -0.267271,0.53454 -0.140862,0.14086 -0.393674,0.1264 -0.534538,0.26726 -0.140864,0.14087 -0.156768,0.36879 -0.267269,0.53454 -0.06989,0.10484 -0.197381,0.16244 -0.267271,0.26727 -0.221004,0.33151 -0.313534,0.73757 -0.534538,1.06908 -0.166743,0.25012 -0.897908,0.89791 -1.069078,1.06908 -0.08909,0.0891 -0.210923,0.15458 -0.267269,0.26727 -0.03984,0.0797 0.063,0.20427 0,0.26727 -0.063,0.063 -0.204274,-0.063 -0.267271,0 -0.063,0.063 0.03984,0.18758 0,0.26727 -0.886421,0.88642 0.125992,-0.25199 -0.267269,0.53454 -0.05635,0.11269 -0.210923,0.15458 -0.267269,0.26727 -0.03984,0.0797 0.03984,0.18758 0,0.26727 -0.05635,0.11269 -0.210923,0.15457 -0.267269,0.26727 -0.07968,0.15936 0.07968,0.37517 0,0.53454 -0.461819,0.92363 -0.07272,-0.3891 -0.53454,0.53453 -0.106908,0.21382 0.106907,0.588 0,0.80181 -0.05635,0.11269 -0.210923,0.15458 -0.267269,0.26727 -0.07968,0.15937 0.07969,0.37517 0,0.53454 -0.05635,0.11269 -0.227428,0.14775 -0.267269,0.26727 -5.29e-4,0.001 2.54e-4,0.80155 0,0.80181 -0.063,0.063 -0.204274,-0.063 -0.267271,0 -0.05464,0.0546 0.05298,0.69584 0,0.80181 -0.05635,0.11269 -0.210924,0.15458 -0.267269,0.26727 -0.03984,0.0797 0.03984,0.18758 0,0.26727 -0.05635,0.11269 -0.210923,0.15457 -0.267269,0.26727 -0.07968,0.15936 0.07968,0.37517 0,0.53454 -0.05635,0.11269 -0.210926,0.15457 -0.267269,0.26727 -0.07968,0.15936 0.125992,0.40854 0,0.53454 -0.063,0.063 -0.204274,-0.063 -0.267271,0 -0.133633,0.13363 0.133635,0.66817 0,0.8018 -0.063,0.063 -0.204272,-0.063 -0.267269,0 -0.063,0.063 0,0.17818 0,0.26727 0,0.0891 -0.07413,0.21785 0,0.26727 0.49726,0.33151 1.069078,0.53454 1.603618,0.80181"
       id="path1131"
       inkscape:connector-curvature="0" />
    <path
       style="fill:none;stroke:#000000;stroke-width:0.26458332px;stroke-linecap:butt;stroke-linejoin:miter;stroke-opacity:1"
       d="m 51.04848,131.56016 c 0.356359,0.8909 0.712719,1.7818 1.069078,2.67269 0.08909,0.0891 0.197382,0.16244 0.267269,0.26728 0.110503,0.16575 0.156766,0.36878 0.267269,0.53453 0.06989,0.10484 0.210926,0.15458 0.267269,0.26728 0.03984,0.0797 -0.03984,0.18758 0,0.26726 0.355245,0.71049 0.179295,-0.17595 0.53454,0.53454 0.03984,0.0797 -0.03984,0.18759 0,0.26727 0.295474,0.59095 0.165878,0.0829 0.534538,0.26727 0.590949,0.29548 0.08294,0.16588 0.267271,0.53454 0.05635,0.11269 0.210923,0.15458 0.267269,0.26727 0.03984,0.0797 -0.03984,0.18759 0,0.26727 0.05635,0.11269 0.210923,0.15458 0.267269,0.26727 0.03984,0.0797 -0.063,0.20427 0,0.26727 0.063,0.063 0.204274,-0.063 0.267269,0 0.063,0.063 0.08909,0.26727 0,0.26727 -0.718265,0 -1.425438,-0.17818 -2.138156,-0.26727"
       id="path1133"
       inkscape:connector-curvature="0" />
    <path
       style="fill:none;stroke:#000000;stroke-width:0.26458332px;stroke-linecap:butt;stroke-linejoin:miter;stroke-opacity:1"
       d="m 52.919365,127.28385 c 2.327793,2.03682 1.468501,1.20123 2.672696,2.40542 0.178179,0.17818 0.38335,0.33296 0.534538,0.53454 0.119528,0.15937 0.156768,0.36879 0.267271,0.53454 0.06989,0.10483 0.210924,0.15458 0.267269,0.26727 0.03984,0.0797 -0.03984,0.18759 0,0.26727 0.31972,0.63944 0.214818,-0.1049 0.534538,0.53454 0.03984,0.0797 -0.03984,0.18759 0,0.26727 0.05635,0.11269 0.210926,0.15458 0.267271,0.26727 0.03984,0.0797 -0.03984,0.18758 0,0.26727 0.05635,0.11269 0.210924,0.15458 0.267269,0.26727 0.03984,0.0797 -0.03984,0.18758 0,0.26727 0.112692,0.22538 0.421849,0.30915 0.534538,0.53454 0.03984,0.0797 -0.03984,0.18758 0,0.26727 0.05635,0.11269 0.210926,0.15458 0.267271,0.26726 0.03984,0.0797 -0.03984,0.18759 0,0.26728 0.05635,0.11269 0.210924,0.15457 0.267269,0.26727 0.07968,0.15936 -0.125992,0.40854 0,0.53454 0.063,0.063 0.204275,-0.063 0.267269,0 0.04148,0.0415 -0.03467,0.6978 0,0.8018 0.063,0.18899 0.204274,0.34555 0.267272,0.53454 0.02817,0.0845 -0.063,0.20428 0,0.26727 0.06299,0.063 0.204271,-0.063 0.267269,0 0.06299,0.063 -0.03984,0.18759 0,0.26727 0.321217,0.64244 0.712718,1.24726 1.069078,1.87089"
       id="path1135"
       inkscape:connector-curvature="0" />
    <path
       style="fill:none;stroke:#000000;stroke-width:0.26458332px;stroke-linecap:butt;stroke-linejoin:miter;stroke-opacity:1"
       d="m 57.462948,121.40392 c 0.267269,1.33634 0.395314,2.70827 0.801807,4.00904 0.05942,0.19014 0.375171,0.14774 0.53454,0.26727 0.201586,0.15119 0.35636,0.35636 0.534541,0.53454 0.267269,0.26727 0.534537,0.53454 0.801806,0.80181 0.157194,0.15719 1.007195,0.94531 1.069078,1.06908 0.03984,0.0797 -0.06299,0.20427 0,0.26727 0.063,0.063 0.187587,-0.0398 0.267272,0 0.112688,0.0563 0.154577,0.21092 0.267269,0.26727 0.356359,0.17818 0.267268,-0.26727 0.267268,0.26726"
       id="path1137"
       inkscape:connector-curvature="0" />
    <path
       style="fill:none;stroke:#000000;stroke-width:0.26458332px;stroke-linecap:butt;stroke-linejoin:miter;stroke-opacity:1"
       d="m 60.937451,115.52399 c 0.79329,1.08461 1.733421,2.00069 2.672697,2.93996 0.08909,0.0891 0.178178,0.17818 0.267269,0.26727 0.08909,0.0891 0.154577,0.21093 0.267269,0.26727 0.07968,0.0398 0.187584,-0.0398 0.267268,0 1.112314,0.55616 -0.28572,-0.0184 0.267272,0.53454 0.063,0.063 0.204271,-0.063 0.267269,0 0.06299,0.063 -0.03984,0.18759 0,0.26727 0.31972,0.63944 0.214818,-0.1049 0.534537,0.53454 0.03984,0.0797 -0.03984,0.18759 0,0.26727 0.05635,0.11269 0.210926,0.15458 0.267272,0.26727 0.03984,0.0797 -0.063,0.20427 0,0.26727 0.063,0.063 0.204272,-0.063 0.267269,0 0.06299,0.063 -0.063,0.20427 0,0.26727 0.06299,0.063 0.204274,-0.063 0.267269,0 0.063,0.063 -0.063,0.20427 0,0.26727 0.063,0.063 0.204274,-0.063 0.267269,0 0.063,0.063 -0.01932,0.35424 0,0.26727 0.19709,-0.88691 0.356359,-1.7818 0.53454,-2.6727"
       id="path1139"
       inkscape:connector-curvature="0" />
    <path
       style="fill:none;stroke:#000000;stroke-width:0.26458332px;stroke-linecap:butt;stroke-linejoin:miter;stroke-opacity:1"
       d="m 67.619189,108.84225 c -0.08909,0.53454 -0.267269,1.0617 -0.267269,1.60362 0,0.0891 0.204274,-0.063 0.267269,0 0.063,0.063 -0.063,0.20427 0,0.26727 0.063,0.063 0.204274,-0.063 0.267271,0 0.063,0.063 -0.063,0.20427 0,0.26727 0.063,0.063 0.204272,-0.063 0.267269,0 0.063,0.063 -0.063,0.20427 0,0.26727 0.063,0.063 0.204274,-0.063 0.267269,0 0.063,0.063 -0.063,0.20427 0,0.26727 0.063,0.063 0.178181,0 0.267269,0 0,0.0891 -0.063,0.20427 0,0.26727 0.063,0.063 0.204274,-0.063 0.267271,0 0.063,0.063 -0.063,0.20427 0,0.26726 0.063,0.063 0.204272,-0.063 0.267269,0 0.063,0.063 0.03984,0.34696 0,0.26728 -0.570455,-1.14091 -1.069078,-2.31634 -1.603618,-3.47451"
       id="path1141"
       inkscape:connector-curvature="0" />
    <path
       style="fill:none;stroke:#000000;stroke-width:0.26458332px;stroke-linecap:butt;stroke-linejoin:miter;stroke-opacity:1"
       d="m 71.895501,105.36775 c 0.01328,0.62277 1.081235,0.55885 1.336349,1.06908 0.03984,0.0797 -0.063,0.20427 0,0.26726 0.063,0.063 0.204272,-0.063 0.267269,0 0.063,0.063 -0.063,0.20428 0,0.26728 0.063,0.063 0.204274,-0.063 0.267269,0 0.063,0.063 -0.063,0.20427 0,0.26726 0.063,0.063 0.187587,-0.0398 0.267272,0 0.112688,0.0563 0.154577,0.21093 0.267268,0.26727 0.07968,0.0399 0.204272,-0.063 0.267269,0 0.125992,0.126 -0.125992,0.40855 0,0.53454 0.35636,0.35636 0.267269,-0.44545 0.267269,0.26727"
       id="path1143"
       inkscape:connector-curvature="0" />
    <path
       style="fill:none;stroke:#000000;stroke-width:0.26458332px;stroke-linecap:butt;stroke-linejoin:miter;stroke-opacity:1"
       d="m 75.904544,101.62597 c 0.712719,0 1.429798,-0.0787 2.138156,0 0.125222,0.0139 0.15458,0.21093 0.267272,0.26727 0.07968,0.0399 0.187584,-0.0398 0.267269,0 0.112691,0.0563 0.154577,0.21093 0.267268,0.26727 0.07968,0.0398 0.187585,-0.0398 0.267269,0 0.112692,0.0563 0.391549,0.28799 0.267272,0.26727 -1.172438,-0.19541 -2.316337,-0.53454 -3.474506,-0.80181"
       id="path1145"
       inkscape:connector-curvature="0" />
    <text
       xml:space="preserve"
       style="font-style:normal;font-weight:normal;font-size:4.23333333px;line-height:1.25;font-family:sans-serif;letter-spacing:0px;word-spacing:0px;fill:#000000;fill-opacity:1;stroke:none;stroke-width:0.26458332;"
       x="39.823158"
       y="171.91786"
       id="text1149"><tspan
         sodipodi:role="line"
         id="tspan1147"
         x="39.823158"
         y="181.28163"
         style="stroke-width:0.26458332;font-size:4.23333333px;" /></text>
    <text
       xml:space="preserve"
       style="font-style:normal;font-weight:normal;font-size:4.23333311px;line-height:1.25;font-family:sans-serif;letter-spacing:0px;word-spacing:0px;fill:#000000;fill-opacity:1;stroke:none;stroke-width:0.26458332"
       x="37.230648"
       y="167.92113"
       id="text1153"><tspan
         sodipodi:role="line"
         x="37.230648"
         y="167.92113"
         style="font-size:4.23333311px;stroke-width:0.26458332"
         id="tspan1165">mu_B</tspan></text>
    <text
       xml:space="preserve"
       style="font-style:normal;font-weight:normal;font-size:4.23333311px;line-height:1.25;font-family:sans-serif;letter-spacing:0px;word-spacing:0px;fill:#000000;fill-opacity:1;stroke:none;stroke-width:0.26458332"
       x="106.77827"
       y="157.1488"
       id="text1157"><tspan
         sodipodi:role="line"
         id="tspan1155"
         x="106.77827"
         y="160.89432"
         style="stroke-width:0.26458332" /></text>
    <text
       xml:space="preserve"
       style="font-style:normal;font-weight:normal;font-size:4.23333311px;line-height:1.25;font-family:sans-serif;letter-spacing:0px;word-spacing:0px;fill:#000000;fill-opacity:1;stroke:none;stroke-width:0.26458332"
       x="163.09673"
       y="137.68303"
       id="text1161"><tspan
         sodipodi:role="line"
         id="tspan1159"
         x="163.09673"
         y="137.68303"
         style="stroke-width:0.26458332">mu_I</tspan><tspan
         sodipodi:role="line"
         x="163.09673"
         y="142.9747"
         style="stroke-width:0.26458332"
         id="tspan1163" /></text>
    <text
       xml:space="preserve"
       style="font-style:normal;font-weight:normal;font-size:4.23333311px;line-height:1.25;font-family:sans-serif;letter-spacing:0px;word-spacing:0px;fill:#000000;fill-opacity:1;stroke:none;stroke-width:0.26458332"
       x="93.927078"
       y="66.434509"
       id="text1171"><tspan
         sodipodi:role="line"
         id="tspan1169"
         x="93.927078"
         y="66.434509"
         style="stroke-width:0.26458332">T</tspan></text>
    <text
       xml:space="preserve"
       style="font-style:normal;font-weight:normal;font-size:4.23333311px;line-height:1.25;font-family:sans-serif;letter-spacing:0px;word-spacing:0px;fill:#000000;fill-opacity:1;stroke:none;stroke-width:0.26458332"
       x="75.028275"
       y="124.26488"
       id="text1175"><tspan
         sodipodi:role="line"
         id="tspan1173"
         x="75.028275"
         y="124.26488"
         style="stroke-width:0.26458332">Hadronic</tspan><tspan
         sodipodi:role="line"
         x="75.028275"
         y="129.55656"
         style="stroke-width:0.26458332"
         id="tspan1177">gas</tspan></text>
    <text
       xml:space="preserve"
       style="font-style:normal;font-weight:normal;font-size:4.23333311px;line-height:1.25;font-family:sans-serif;letter-spacing:0px;word-spacing:0px;fill:#000000;fill-opacity:1;stroke:none;stroke-width:0.26458332"
       x="38.175594"
       y="149.58928"
       id="text1181"><tspan
         sodipodi:role="line"
         id="tspan1179"
         x="38.175594"
         y="149.58928"
         style="stroke-width:0.26458332">QG sc</tspan></text>
    <flowRoot
       xml:space="preserve"
       id="flowRoot1183"
       style="fill:black;fill-opacity:1;stroke:none;font-family:sans-serif;font-style:normal;font-weight:normal;font-size:16px;line-height:1.25;letter-spacing:0px;word-spacing:0px"><flowRegion
         id="flowRegion1185"><rect
           id="rect1187"
           width="49.285713"
           height="45.714287"
           x="435.71429"
           y="356.09113" /></flowRegion><flowPara
         id="flowPara1189" /></flowRoot>    <text
       xml:space="preserve"
       style="font-style:normal;font-weight:normal;font-size:4.23333311px;line-height:1.25;font-family:sans-serif;letter-spacing:0px;word-spacing:0px;fill:#000000;fill-opacity:1;stroke:none;stroke-width:0.26458332"
       x="143.25298"
       y="128.04463"
       id="text1197"><tspan
         sodipodi:role="line"
         id="tspan1195"
         x="143.25298"
         y="128.04463"
         style="stroke-width:0.26458332">pion cond</tspan></text>
    <text
       xml:space="preserve"
       style="font-style:normal;font-weight:normal;font-size:4.23333311px;line-height:1.25;font-family:sans-serif;letter-spacing:0px;word-spacing:0px;fill:#000000;fill-opacity:1;stroke:none;stroke-width:0.26458332"
       x="29.293158"
       y="115.94939"
       id="text1201"><tspan
         sodipodi:role="line"
         id="tspan1199"
         x="29.293158"
         y="115.94939"
         style="stroke-width:0.26458332">quarkyonic</tspan></text>
    <text
       xml:space="preserve"
       style="font-style:normal;font-weight:normal;font-size:4.23333311px;line-height:1.25;font-family:sans-serif;letter-spacing:0px;word-spacing:0px;fill:#000000;fill-opacity:1;stroke:none;stroke-width:0.26458332"
       x="22.300598"
       y="98.940468"
       id="text1205"><tspan
         sodipodi:role="line"
         id="tspan1203"
         x="22.300598"
         y="98.940468"
         style="stroke-width:0.26458332">QG plasma</tspan></text>
    <text
       xml:space="preserve"
       style="font-style:normal;font-weight:normal;font-size:4.23333311px;line-height:1.25;font-family:sans-serif;letter-spacing:0px;word-spacing:0px;fill:#000000;fill-opacity:1;stroke:none;stroke-width:0.26458332"
       x="103.96633"
       y="92.581177"
       id="text1193-2"><tspan
         sodipodi:role="line"
         x="103.96633"
         y="92.581177"
         style="stroke-width:0.26458332"
         id="tspan1207-6">Deconf</tspan></text>
    <text
       xml:space="preserve"
       style="font-style:normal;font-weight:normal;font-size:4.23333311px;line-height:1.25;font-family:sans-serif;letter-spacing:0px;word-spacing:0px;fill:#000000;fill-opacity:1;stroke:none;stroke-width:0.26458332"
       x="130.52287"
       y="86.312233"
       id="text1205-5"><tspan
         sodipodi:role="line"
         id="tspan1203-2"
         x="130.52287"
         y="86.312233"
         style="stroke-width:0.26458332">QG plasma</tspan></text>
    <path
       style="fill:none;stroke:#000000;stroke-width:0.26458332px;stroke-linecap:butt;stroke-linejoin:miter;stroke-opacity:1;marker-end:url(#Arrow1Lend)"
       d="m 46.680058,121.24108 15.308037,1.5119"
       id="path1531"
       inkscape:connector-curvature="0" />
    <text
       xml:space="preserve"
       style="font-style:normal;font-weight:normal;font-size:4.23333311px;line-height:1.25;font-family:sans-serif;letter-spacing:0px;word-spacing:0px;fill:#000000;fill-opacity:1;stroke:none;stroke-width:0.26458332"
       x="109.82157"
       y="116.9283"
       id="text1175-6"><tspan
         sodipodi:role="line"
         id="tspan1173-5"
         x="109.82157"
         y="116.9283"
         style="stroke-width:0.26458332">Hadronic</tspan><tspan
         sodipodi:role="line"
         x="109.82157"
         y="122.21997"
         style="stroke-width:0.26458332"
         id="tspan1177-8">gas</tspan></text>
    <path
       style="fill:none;stroke:#000000;stroke-width:0.26458332px;stroke-linecap:butt;stroke-linejoin:miter;stroke-opacity:1"
       d="m 66.145832,149.58928 c 0.251984,0.063 0.501259,0.13805 0.755952,0.18899 0.06177,0.0124 0.129225,-0.0199 0.188989,0 0.267269,0.0891 0.479698,0.32273 0.755952,0.37798 0.185319,0.0371 0.381646,-0.0371 0.566965,0 0.138128,0.0276 0.241319,0.15482 0.377976,0.18899 0.122229,0.0306 0.25845,-0.0398 0.377976,0 0.08452,0.0282 0.109304,0.14914 0.188989,0.18899 0.05751,0.0288 0.481851,0 0.566962,0 0.503971,0 1.007938,0 1.511906,0"
       id="path1938"
       inkscape:connector-curvature="0" />
    <path
       style="fill:none;stroke:#000000;stroke-width:0.26458332px;stroke-linecap:butt;stroke-linejoin:miter;stroke-opacity:1"
       d="m 77.485117,150.15625 c 0.314981,0 0.634246,-0.0518 0.944941,0 0.08788,0.0146 0.104471,0.16081 0.188989,0.18899 0.228635,0.0762 0.876501,-0.0644 1.133928,0 0.136657,0.0342 0.239847,0.16136 0.377976,0.18899 0.308864,0.0618 0.629962,0 0.94494,0 0.125992,0 0.251984,0 0.377976,0 0.125992,0 0.255747,0.0306 0.377976,0 0.13666,-0.0342 0.241319,-0.15483 0.377979,-0.18899 0.122229,-0.0306 0.251983,0 0.377975,0 0.314979,0 0.62996,0 0.944941,0 0.04491,0 0.713595,0.0212 0.755952,0 0.07968,-0.0398 0.109304,-0.14915 0.188986,-0.18899 0.251987,-0.126 0.18899,0.18899 0.18899,-0.18899"
       id="path1944"
       inkscape:connector-curvature="0" />
    <path
       style="fill:none;stroke:#000000;stroke-width:0.26458332px;stroke-linecap:butt;stroke-linejoin:miter;stroke-opacity:1"
       d="m 91.281249,148.26637 c 0.182845,-0.16721 1.342935,0.0895 1.700892,0 0.136658,-0.0342 0.241319,-0.15483 0.377976,-0.18899 0.473385,-0.11835 0.28257,0.11834 0.755954,0 0.273315,-0.0683 0.482637,-0.30965 0.755952,-0.37798 1.253588,0 -0.267269,0.0891 0.566965,-0.18899 0.119526,-0.0398 0.258448,0.0399 0.377976,0 0.169034,-0.0563 0.218607,-0.29829 0.377976,-0.37797 0.05634,-0.0282 0.144444,0.0445 0.188986,0 0.04454,-0.0446 -0.04454,-0.14444 0,-0.18899 0.08909,-0.0891 0.265287,0.0563 0.377979,0 0.159366,-0.0797 0.218606,-0.29829 0.377975,-0.37797 0.05635,-0.0282 0.132641,0.0282 0.188987,0 0.07968,-0.0399 0.114861,-0.13958 0.188989,-0.18899 0.117205,-0.0781 0.260771,-0.11085 0.377976,-0.18899 0.07413,-0.0494 0.109305,-0.14915 0.188989,-0.18899 0.05634,-0.0282 0.132641,0.0282 0.188987,0 0.07968,-0.0398 0.109305,-0.14915 0.188989,-0.18899 0.05635,-0.0282 0.132641,0.0282 0.188987,0 0.467066,-0.23353 -0.06523,-0.18899 0.377976,-0.18899"
       id="path1946"
       inkscape:connector-curvature="0" />
    <path
       style="fill:none;stroke:#000000;stroke-width:0.26458332px;stroke-linecap:butt;stroke-linejoin:miter;stroke-opacity:1"
       d="m 105.64434,143.54166 c 0.25199,-0.12599 0.50397,-0.25198 0.75596,-0.37797 0.063,-0.063 0.1093,-0.14915 0.18898,-0.18899 0.0563,-0.0282 0.13265,0.0282 0.18899,0 0.0797,-0.0398 0.10931,-0.14914 0.18899,-0.18899 0.0564,-0.0282 0.12599,0 0.18899,0 0.12599,-0.063 0.26077,-0.11085 0.37797,-0.18898 0.0741,-0.0494 0.10448,-0.16082 0.18899,-0.18899 0.11953,-0.0398 0.25845,0.0398 0.37798,0 0.16904,-0.0563 0.21861,-0.2983 0.37798,-0.37798 0.0563,-0.0282 0.13264,0.0282 0.18898,0 0.78653,-0.39326 -0.20203,0.013 0.18899,-0.37798 0.0891,-0.0891 0.28889,0.0891 0.37798,0 0.0445,-0.0445 -0.0446,-0.14444 0,-0.18898 0.0445,-0.0445 0.13264,0.0282 0.18899,0 0.0797,-0.0399 0.12599,-0.126 0.18898,-0.18899"
       id="path1948"
       inkscape:connector-curvature="0" />
    <path
       style="fill:none;stroke:#000000;stroke-width:0.26458332px;stroke-linecap:butt;stroke-linejoin:miter;stroke-opacity:1"
       d="m 120.38542,138.06101 c 0.31498,-0.18899 0.62995,-0.37798 0.94494,-0.56696 0.12599,0 0.25845,0.0398 0.37797,0 0.0845,-0.0282 0.11486,-0.13958 0.18899,-0.18899 0.12599,-0.063 0.25198,-0.12599 0.37798,-0.18899 0.063,0 0.13264,0.0282 0.18898,0 0.0797,-0.0398 0.10931,-0.14915 0.18899,-0.18899 0.0563,-0.0282 0.12923,0.0199 0.18899,0 0.13363,-0.0445 0.24434,-0.14444 0.37798,-0.18899 0.0598,-0.0199 0.13264,0.0282 0.18898,0 0.46707,-0.23353 -0.0652,-0.18899 0.37798,-0.18899"
       id="path1950"
       inkscape:connector-curvature="0" />
    <path
       style="fill:none;stroke:#000000;stroke-width:0.26458332px;stroke-linecap:butt;stroke-linejoin:miter;stroke-opacity:1"
       d="m 128.28937,131.82743 c -2.76834,2.72565 -0.38157,1.96112 -0.15544,1.50888 0.0282,-0.0564 -0.0445,-0.14445 0,-0.18899 0.0445,-0.0446 0.13264,0.0282 0.18899,0 0.0797,-0.0398 0.1093,-0.14915 0.18898,-0.18899 0.0564,-0.0282 0.20115,0.0618 0.18899,0 -0.0774,-0.3936 -0.27435,-0.75394 -0.41152,-1.1309"
       id="path1952"
       inkscape:connector-curvature="0" />
    <text
       xml:space="preserve"
       style="font-style:normal;font-weight:normal;font-size:4.23333311px;line-height:1.25;font-family:sans-serif;letter-spacing:0px;word-spacing:0px;fill:#000000;fill-opacity:1;stroke:none;stroke-width:0.26458332"
       x="128.5119"
       y="140.32886"
       id="text1956"><tspan
         sodipodi:role="line"
         id="tspan1954"
         x="128.5119"
         y="140.32886"
         style="stroke-width:0.26458332">m_pi</tspan></text>
    <text
       xml:space="preserve"
       style="font-style:normal;font-weight:normal;font-size:4.23333311px;line-height:1.25;font-family:sans-serif;letter-spacing:0px;word-spacing:0px;fill:#000000;fill-opacity:1;stroke:none;stroke-width:0.26458332"
       x="66.712784"
       y="156.20387"
       id="text1960"><tspan
         sodipodi:role="line"
         id="tspan1958"
         x="66.712784"
         y="156.20387"
         style="stroke-width:0.26458332">m_N</tspan></text>
    <path
       style="fill:none;stroke:#000000;stroke-width:0.26458332px;stroke-linecap:butt;stroke-linejoin:miter;stroke-opacity:1"
       d="m 66.14583,149.58928 c -0.62996,-0.75595 -1.194065,-1.57204 -1.889879,-2.26785 -0.08909,-0.0891 0,0.25198 0,0.37797 0,0.44321 -0.04454,-0.0891 0.188989,0.37798 0.07559,0.15119 -0.0756,0.41577 0,0.56696 0.03984,0.0797 0.149146,0.10931 0.188987,0.18899 0.02817,0.0564 -0.02817,0.13264 0,0.18899 0.03984,0.0797 0.149148,0.1093 0.188989,0.18899 0.05635,0.11269 -0.08909,0.28888 0,0.37797 0.251984,0.25199 0.188989,-0.31498 0.188989,0.18899 0,0.063 0,0.12599 0,0.18899 0,0.063 -0.05635,0.16082 0,0.18899 0.112689,0.0563 0.288885,-0.0891 0.377976,0 0.04504,0.045 0,0.63384 0,0.75595 0,0.063 0,0.25198 0,0.18899 0,-0.44097 0,-0.88195 0,-1.32292 0,-0.0851 0.02876,-0.50945 0,-0.56696 -0.03984,-0.0797 -0.149146,-0.10931 -0.188989,-0.18899 -0.05126,-0.10252 0.05171,-0.70424 0,-0.75595 -0.0996,-0.0996 -0.299839,-0.0718 -0.377976,-0.18899 -0.02508,-0.0376 0,-0.81639 0,-0.94494 0,-0.31498 0,-0.62996 0,-0.94494 0,-0.063 0.04454,-0.14444 0,-0.18899 -0.04454,-0.0446 -0.144444,-0.0446 -0.188989,0 -0.04454,0.0445 0,0.12599 0,0.18899 0,0.25198 0,0.50397 0,0.75595 0,1.07093 0,2.14187 0,3.2128 0,0.063 0,0.12599 0,0.18899 0,0.063 -0.04454,0.14444 0,0.18899 0.251986,0.25198 0.188989,-0.31499 0.188989,0.18898 0,0.13437 -0.07938,0.56697 0.188989,0.56697 0.063,0 0,-0.126 0,-0.18899 0,-0.37798 0,-0.75595 0,-1.13393 0,-0.12599 0.03984,-0.25845 0,-0.37798 -0.04454,-0.13363 -0.144444,-0.24434 -0.188989,-0.37797 -0.03554,-0.10663 0,-0.44278 0,-0.56697 0,-0.37797 0,-0.75595 0,-1.13393 0,-0.0458 0.0061,-0.56088 0,-0.56696 -0.04454,-0.0445 -0.144444,0.0445 -0.188989,0 -0.04454,-0.0445 -0.03125,-0.24368 0,-0.18899 0.531331,0.92983 1.007935,1.88988 1.511903,2.83482"
       id="path1962"
       inkscape:connector-curvature="0" />
    <path
       style="fill:none;stroke:#000000;stroke-width:0.26458332px;stroke-linecap:butt;stroke-linejoin:miter;stroke-opacity:1"
       d="m 128.28937,131.82743 c 0.13717,-0.064 0.34752,-0.32919 0.41152,-0.19202 0.064,0.13718 -0.39011,0.0422 -0.41152,0.19202 -0.0543,0.38033 0.15866,0.75205 0.22253,1.1309 0.0295,0.17516 0,0.38904 0,0.56697 0,0.37797 0,0.75595 0,1.13393 0,0.063 0.063,0.18898 0,0.18898 -0.063,0 0,-0.12599 0,-0.18898 0,-0.063 0,-0.126 0,-0.18899 0,-0.25199 0,-0.50397 0,-0.75596 0,-0.21869 0.0378,-0.94185 0,-1.13393 -0.0505,-0.25678 -0.25143,-0.49281 -0.22253,-0.75292 0.038,-0.34237 0.29428,-0.62405 0.41152,-0.94797 0.0429,-0.11847 0,-0.25198 0,-0.37797 0,-0.25199 0,-0.50397 0,-0.75596 0,-0.063 -0.063,-0.18898 0,-0.18898 0.063,0 0,0.12599 0,0.18898 0,0.063 0,0.126 0,0.18899 0,0.14764 0.0287,1.27003 0,1.32292 -0.1117,0.20601 -0.41152,0.33565 -0.41152,0.56999 0,0.40115 0.30597,0.74389 0.41152,1.1309 0.0363,0.1332 0,0.5765 0,0.75595 0,0.44321 -0.0445,-0.0891 0.18899,0.37798 0.0282,0.0563 0,0.12599 0,0.18899 0,0.063 0,0.12599 0,0.18899 0,0.063 0.014,0.25041 0,0.18899 -0.2138,-0.94094 -0.40034,-1.88787 -0.60051,-2.8318"
       id="path1964"
       inkscape:connector-curvature="0" />
    <path
       style="fill:none;stroke:#000000;stroke-width:0.26458332px;stroke-linecap:butt;stroke-linejoin:miter;stroke-opacity:1;marker-end:url(#marker2093)"
       d="m 106.02232,100.26339 3.40179,-5.480653"
       id="path2023"
       inkscape:connector-curvature="0" />
    <path
       style="fill:none;stroke:#000000;stroke-width:0.26458332px;stroke-linecap:butt;stroke-linejoin:miter;stroke-opacity:1;marker-end:url(#marker2035)"
       d="M 87.690475,102.15327 79.374999,94.971726"
       id="path2025"
       inkscape:connector-curvature="0" />
    <text
       xml:space="preserve"
       style="font-style:normal;font-weight:normal;font-size:4.23333311px;line-height:1.25;font-family:sans-serif;letter-spacing:0px;word-spacing:0px;fill:#000000;fill-opacity:1;stroke:none;stroke-width:0.26458332"
       x="69.192528"
       y="92.581169"
       id="text1193-2-4"><tspan
         sodipodi:role="line"
         x="69.192528"
         y="92.581169"
         style="stroke-width:0.26458332"
         id="tspan1207-6-1">Deconf</tspan></text>
  </g>
</svg>
