<?xml version="1.0" encoding="UTF-8" standalone="no"?>
<!-- Created with Inkscape (http://www.inkscape.org/) -->

<svg
   xmlns:dc="http://purl.org/dc/elements/1.1/"
   xmlns:cc="http://creativecommons.org/ns#"
   xmlns:rdf="http://www.w3.org/1999/02/22-rdf-syntax-ns#"
   xmlns:svg="http://www.w3.org/2000/svg"
   xmlns="http://www.w3.org/2000/svg"
   xmlns:sodipodi="http://sodipodi.sourceforge.net/DTD/sodipodi-0.dtd"
   xmlns:inkscape="http://www.inkscape.org/namespaces/inkscape"
   width="210mm"
   height="297mm"
   viewBox="0 0 210 297"
   version="1.1"
   id="svg1392"
   inkscape:version="0.92.5 (2060ec1f9f, 2020-04-08)"
   sodipodi:docname="SU(3).svg">
  <defs
     id="defs1386">
    <marker
       inkscape:stockid="Arrow1Mend"
       orient="auto"
       refY="0.0"
       refX="0.0"
       id="marker5912"
       style="overflow:visible;"
       inkscape:isstock="true">
      <path
         id="path5910"
         d="M 0.0,0.0 L 5.0,-5.0 L -12.5,0.0 L 5.0,5.0 L 0.0,0.0 z "
         style="fill-rule:evenodd;stroke:#000000;stroke-width:1pt;stroke-opacity:1;fill:#000000;fill-opacity:1"
         transform="scale(0.4) rotate(180) translate(10,0)" />
    </marker>
    <marker
       inkscape:stockid="Arrow2Mend"
       orient="auto"
       refY="0.0"
       refX="0.0"
       id="Arrow2Mend"
       style="overflow:visible;"
       inkscape:isstock="true">
      <path
         id="path3582"
         style="fill-rule:evenodd;stroke-width:0.625;stroke-linejoin:round;stroke:#000000;stroke-opacity:1;fill:#000000;fill-opacity:1"
         d="M 8.7185878,4.0337352 L -2.2072895,0.016013256 L 8.7185884,-4.0017078 C 6.9730900,-1.6296469 6.9831476,1.6157441 8.7185878,4.0337352 z "
         transform="scale(0.6) rotate(180) translate(0,0)" />
    </marker>
    <marker
       inkscape:stockid="Arrow1Mend"
       orient="auto"
       refY="0.0"
       refX="0.0"
       id="Arrow1Mend"
       style="overflow:visible;"
       inkscape:isstock="true">
      <path
         id="path3564"
         d="M 0.0,0.0 L 5.0,-5.0 L -12.5,0.0 L 5.0,5.0 L 0.0,0.0 z "
         style="fill-rule:evenodd;stroke:#000000;stroke-width:1pt;stroke-opacity:1;fill:#000000;fill-opacity:1"
         transform="scale(0.4) rotate(180) translate(10,0)" />
    </marker>
    <marker
       inkscape:stockid="Arrow1Lend"
       orient="auto"
       refY="0.0"
       refX="0.0"
       id="marker5736"
       style="overflow:visible;"
       inkscape:isstock="true">
      <path
         id="path3558"
         d="M 0.0,0.0 L 5.0,-5.0 L -12.5,0.0 L 5.0,5.0 L 0.0,0.0 z "
         style="fill-rule:evenodd;stroke:#000000;stroke-width:1pt;stroke-opacity:1;fill:#000000;fill-opacity:1"
         transform="scale(0.8) rotate(180) translate(12.5,0)" />
    </marker>
    <marker
       inkscape:stockid="Arrow1Mstart"
       orient="auto"
       refY="0.0"
       refX="0.0"
       id="Arrow1Mstart"
       style="overflow:visible"
       inkscape:isstock="true">
      <path
         id="path3561"
         d="M 0.0,0.0 L 5.0,-5.0 L -12.5,0.0 L 5.0,5.0 L 0.0,0.0 z "
         style="fill-rule:evenodd;stroke:#000000;stroke-width:1pt;stroke-opacity:1;fill:#000000;fill-opacity:1"
         transform="scale(0.4) translate(10,0)" />
    </marker>
    <marker
       inkscape:stockid="Arrow1Lstart"
       orient="auto"
       refY="0.0"
       refX="0.0"
       id="Arrow1Lstart"
       style="overflow:visible"
       inkscape:isstock="true">
      <path
         id="path3555"
         d="M 0.0,0.0 L 5.0,-5.0 L -12.5,0.0 L 5.0,5.0 L 0.0,0.0 z "
         style="fill-rule:evenodd;stroke:#000000;stroke-width:1pt;stroke-opacity:1;fill:#000000;fill-opacity:1"
         transform="scale(0.8) translate(12.5,0)" />
    </marker>
    <marker
       inkscape:isstock="true"
       style="overflow:visible"
       id="marker1568"
       refX="0"
       refY="0"
       orient="auto"
       inkscape:stockid="Arrow1Lend">
      <path
         transform="matrix(-0.8,0,0,-0.8,-10,0)"
         style="fill:#000000;fill-opacity:1;fill-rule:evenodd;stroke:#000000;stroke-width:1.00000003pt;stroke-opacity:1"
         d="M 0,0 5,-5 -12.5,0 5,5 Z"
         id="path1566"
         inkscape:connector-curvature="0" />
    </marker>
    <marker
       inkscape:stockid="Arrow1Lend"
       orient="auto"
       refY="0"
       refX="0"
       id="Arrow1Lend"
       style="overflow:visible"
       inkscape:isstock="true">
      <path
         inkscape:connector-curvature="0"
         id="path876"
         d="M 0,0 5,-5 -12.5,0 5,5 Z"
         style="fill:#000000;fill-opacity:1;fill-rule:evenodd;stroke:#000000;stroke-width:1.00000003pt;stroke-opacity:1"
         transform="matrix(-0.8,0,0,-0.8,-10,0)" />
    </marker>
    <marker
       inkscape:stockid="Arrow1Lend"
       orient="auto"
       refY="0"
       refX="0"
       id="Arrow1Lend-7"
       style="overflow:visible"
       inkscape:isstock="true">
      <path
         inkscape:connector-curvature="0"
         id="path876-6"
         d="M 0,0 5,-5 -12.5,0 5,5 Z"
         style="fill:#000000;fill-opacity:1;fill-rule:evenodd;stroke:#000000;stroke-width:1.00000003pt;stroke-opacity:1"
         transform="matrix(-0.8,0,0,-0.8,-10,0)" />
    </marker>
    <marker
       inkscape:stockid="Arrow1Mend"
       orient="auto"
       refY="0"
       refX="0"
       id="marker5912-6"
       style="overflow:visible"
       inkscape:isstock="true">
      <path
         inkscape:connector-curvature="0"
         id="path5910-9"
         d="M 0,0 5,-5 -12.5,0 5,5 Z"
         style="fill:#000000;fill-opacity:1;fill-rule:evenodd;stroke:#000000;stroke-width:1.00000003pt;stroke-opacity:1"
         transform="matrix(-0.4,0,0,-0.4,-4,0)" />
    </marker>
  </defs>
  <sodipodi:namedview
     id="base"
     pagecolor="#ffffff"
     bordercolor="#666666"
     borderopacity="1.0"
     inkscape:pageopacity="0.0"
     inkscape:pageshadow="2"
     inkscape:zoom="1.1320313"
     inkscape:cx="278.56247"
     inkscape:cy="686.22049"
     inkscape:document-units="mm"
     inkscape:current-layer="layer1"
     showgrid="false"
     inkscape:window-width="1680"
     inkscape:window-height="986"
     inkscape:window-x="0"
     inkscape:window-y="27"
     inkscape:window-maximized="1" />
  <metadata
     id="metadata1389">
    <rdf:RDF>
      <cc:Work
         rdf:about="">
        <dc:format>image/svg+xml</dc:format>
        <dc:type
           rdf:resource="http://purl.org/dc/dcmitype/StillImage" />
        <dc:title></dc:title>
      </cc:Work>
    </rdf:RDF>
  </metadata>
  <g
     inkscape:label="Layer 1"
     inkscape:groupmode="layer"
     id="layer1">
    <g
       id="g7631">
      <ellipse
         ry="27.025299"
         rx="28.726189"
         cy="139.10907"
         cx="75.268631"
         id="path815"
         style="fill:none;fill-opacity:1;stroke:#929293;stroke-width:0.40000001;stroke-miterlimit:4;stroke-dasharray:2.4, 0.8;stroke-dashoffset:0;stroke-opacity:1" />
      <path
         sodipodi:open="true"
         d="m 284.44549,-127.48989 a 24.744139,11.976895 0 0 1 -32.60841,6.04993 24.744139,11.976895 0 0 1 -12.63238,-15.75856"
         sodipodi:end="3.5548198"
         sodipodi:start="0.42140819"
         sodipodi:ry="11.976895"
         sodipodi:rx="24.744139"
         sodipodi:cy="-132.38899"
         sodipodi:cx="261.86612"
         sodipodi:type="arc"
         transform="matrix(0.08938392,0.99599725,-0.39349269,0.91932774,0,0)"
         id="path815-3-6"
         style="fill:none;fill-opacity:1;stroke:#929293;stroke-width:0.53576237;stroke-miterlimit:4;stroke-dasharray:3.21457415, 1.07152472;stroke-dashoffset:0;stroke-opacity:1" />
      <path
         sodipodi:open="true"
         d="m -75.666662,166.10569 a 15.085448,27.076841 0 0 1 -14.805196,-27.23451 15.085448,27.076841 0 0 1 14.986055,-26.91393"
         sodipodi:end="4.7058182"
         sodipodi:start="1.5893571"
         sodipodi:ry="27.076841"
         sodipodi:rx="15.085448"
         sodipodi:cy="139.03351"
         sodipodi:cx="-75.386681"
         sodipodi:type="arc"
         transform="scale(-1,1)"
         id="path815-36"
         style="fill:none;fill-opacity:1;stroke:#929293;stroke-width:0.29014418;stroke-miterlimit:4;stroke-dasharray:1.740865, 0.58028832;stroke-dashoffset:0;stroke-opacity:1" />
      <path
         transform="scale(-1,1)"
         sodipodi:open="true"
         d="m -75.76418,111.99665 a 22.929605,27.043837 0 0 1 22.927075,26.87828 22.929605,27.043837 0 0 1 -22.646344,27.20733"
         sodipodi:end="1.5584612"
         sodipodi:start="4.7124806"
         sodipodi:ry="27.043837"
         sodipodi:rx="22.929605"
         sodipodi:cy="139.04048"
         sodipodi:cx="-75.766281"
         sodipodi:type="arc"
         id="path815-36-5"
         style="fill:none;fill-opacity:1;stroke:#929293;stroke-width:0.35749349;stroke-miterlimit:4;stroke-dasharray:2.14496095, 0.71498699;stroke-dashoffset:0;stroke-opacity:1" />
      <path
         sodipodi:open="true"
         d="m -118.50594,254.65204 a 26.354349,13.436834 0 0 1 -34.93444,6.16162 26.354349,13.436834 0 0 1 -12.65284,-17.70863"
         sodipodi:end="3.5694932"
         sodipodi:start="0.46049665"
         sodipodi:ry="13.436834"
         sodipodi:rx="26.354349"
         sodipodi:cy="248.6808"
         sodipodi:cx="-142.11501"
         sodipodi:type="arc"
         transform="matrix(0.99302471,-0.11790642,0.87016101,0.4927675,0,0)"
         id="path815-3"
         style="fill:none;fill-opacity:1;stroke:#929293;stroke-width:0.51990694;stroke-miterlimit:4;stroke-dasharray:3.1194415, 1.03981384;stroke-dashoffset:0;stroke-opacity:1" />
      <path
         sodipodi:open="true"
         d="m -166.35902,287.36071 a 22.273737,10.738711 0 0 1 -29.52532,4.92437 22.273737,10.738711 0 0 1 -10.69372,-14.15273"
         sodipodi:end="3.5694932"
         sodipodi:start="0.46049665"
         sodipodi:ry="10.738711"
         sodipodi:rx="22.273737"
         sodipodi:cy="282.5885"
         sodipodi:cx="-186.31255"
         sodipodi:type="arc"
         transform="matrix(0.99621012,-0.08697935,0.92315817,0.38442034,0,0)"
         id="path815-3-7"
         style="fill:none;fill-opacity:1;stroke:#929293;stroke-width:0.57775968;stroke-miterlimit:4;stroke-dasharray:3.46655818, 1.15551939;stroke-dashoffset:0;stroke-opacity:1" />
      <path
         sodipodi:open="true"
         d="m -34.143285,196.60361 a 24.420639,15.58513 0 0 1 -30.403282,5.12188 24.420639,15.58513 0 0 1 -13.106519,-18.24154"
         sodipodi:end="3.4111301"
         sodipodi:start="0.61324054"
         sodipodi:ry="15.58513"
         sodipodi:rx="24.420639"
         sodipodi:cy="187.63405"
         sodipodi:cx="-54.114174"
         sodipodi:type="arc"
         transform="matrix(0.97578411,-0.21873583,0.68310049,0.7303244,0,0)"
         id="path815-3-7-4"
         style="fill:none;fill-opacity:1;stroke:#929293;stroke-width:0.45679271;stroke-miterlimit:4;stroke-dasharray:2.74075603, 0.91358534;stroke-dashoffset:0;stroke-opacity:1" />
    </g>
    <ellipse
       style="fill:#004bac;fill-opacity:1;stroke:none;stroke-width:0.26511338;stroke-miterlimit:4;stroke-dasharray:none;stroke-opacity:1"
       id="path849"
       cx="75.155052"
       cy="112.06699"
       rx="1.7276618"
       ry="0.77840555" />
    <path
       style="fill:none;stroke:#000000;stroke-width:0.61814058;stroke-linecap:butt;stroke-linejoin:miter;stroke-miterlimit:4;stroke-dasharray:none;stroke-opacity:1;marker-end:url(#marker5912)"
       d="m 71.813997,110.37688 c 0,0 -17.583905,2.15531 -21.705028,21.633"
       id="path871"
       inkscape:connector-curvature="0"
       sodipodi:nodetypes="cc" />
    <g
       id="g2192"
       transform="matrix(0.38168625,0,0,0.38168625,40.299772,69.942129)">
      <g
         word-spacing="normal"
         letter-spacing="normal"
         font-size-adjust="none"
         font-stretch="normal"
         font-weight="normal"
         font-variant="normal"
         font-style="normal"
         stroke-miterlimit="10.433"
         xml:space="preserve"
         transform="matrix(0.3,0,0,-0.3,-52.5,222.75)"
         id="g2190"
         style="font-style:normal;font-variant:normal;font-weight:normal;font-stretch:normal;letter-spacing:normal;word-spacing:normal;text-anchor:start;fill:none;fill-opacity:1;fill-rule:evenodd;stroke:#000000;stroke-linecap:butt;stroke-linejoin:miter;stroke-miterlimit:10.43299961;stroke-dasharray:none;stroke-dashoffset:0;stroke-opacity:1"><path
           id="path2186"
           d="m 463.99,397.73 -0.01,-0.03 -0.01,-0.03 -0.01,-0.03 -0.01,-0.03 -0.01,-0.02 -0.01,-0.03 -0.01,-0.05 -0.02,-0.05 -0.01,-0.04 -0.01,-0.05 -0.02,-0.04 -0.01,-0.04 -0.01,-0.03 -0.01,-0.04 -0.01,-0.03 -0.01,-0.03 -0.01,-0.03 -0.01,-0.03 v -0.02 l -0.01,-0.03 -0.01,-0.02 v -0.02 l -0.01,-0.03 v -0.02 -0.02 l -0.01,-0.04 -0.01,-0.04 v -0.04 -0.04 -0.03 -0.02 c 0,-1.09 0.95,-1.39 1.45,-1.39 0.25,0 1.35,0.14 1.85,1.3 0.14,0.39 0.39,2.04 1.73,9.11 0.45,-0.05 0.8,-0.1 1.64,-0.1 8.28,0 15.95,7.83 15.95,15.69 l -1.4,-1.09 c 0,-5.63 -6.42,-11.71 -14.1,-11.71 v 0 c -0.39,0 -0.5,0 -0.89,0.05 -0.61,0 -0.65,0.05 -0.65,0.2 0,0.1 0.84,4.63 1,5.38 1.54,6.37 5.43,11.15 9.86,11.15 3.43,0 4.78,-2.68 4.78,-5.07 l 1.4,1.09 c 0,3.89 -1.95,6.87 -5.68,6.87 -7.22,0 -10.21,-9.65 -13.21,-19.37 -5.37,1 -8.17,3.78 -8.17,7.37 0,1.4 1.16,6.88 4.14,10.32 0.39,0.45 0.39,0.54 0.39,0.64 0,0.2 -0.09,0.5 -0.59,0.5 -1.39,0 -5.24,-7.22 -5.24,-12 0,-4.69 3.3,-8.33 8.63,-9.56 z"
           inkscape:connector-curvature="0"
           style="fill:#000000;stroke-width:0" /><path
           id="path2188"
           d="m 506.14,409.87 v 0.71 l -0.02,0.68 -0.03,0.66 -0.04,0.64 -0.06,0.62 -0.07,0.6 -0.09,0.57 -0.11,0.56 -0.13,0.55 -0.15,0.53 -0.17,0.51 -0.19,0.5 -0.21,0.49 -0.24,0.48 -0.26,0.47 -0.14,0.23 -0.15,0.23 c -1.08,1.61 -3.23,3 -6.03,3 v -0.98 c 1.89,0 3.7,-1.14 4.33,-3.17 0.56,-1.88 0.59,-4.39 0.59,-7.43 0,-2.57 0,-5.15 -0.45,-7.34 -0.7,-3.17 -3.06,-3.94 -4.47,-3.94 v 0 c -1.59,0 -3.72,0.94 -4.42,3.8 -0.49,2.05 -0.49,4.91 -0.49,7.48 0,2.55 0,5.21 0.52,7.11 0.73,2.75 2.97,3.49 4.39,3.49 v 0.98 c -8.08,0 -8.08,-9.51 -8.08,-12.03 0,-2.5 0,-11.81 8.08,-11.81 8.09,0 8.09,9.31 8.09,11.81 z"
           inkscape:connector-curvature="0"
           style="fill:#000000;stroke-width:0" /></g>    </g>
    <path
       style="opacity:1;fill:none;fill-opacity:1;stroke:#000000;stroke-width:0.6;stroke-miterlimit:4;stroke-dasharray:none;stroke-dashoffset:0;stroke-opacity:1;marker-start:url(#Arrow1Mstart)"
       id="path3523"
       sodipodi:type="arc"
       sodipodi:cx="74.65509"
       sodipodi:cy="103.34936"
       sodipodi:rx="11.065245"
       sodipodi:ry="1.6860324"
       sodipodi:start="1.9420927"
       sodipodi:end="0.85798246"
       d="m 70.640357,104.9205 a 11.065245,1.6860324 0 0 1 -6.994934,-1.73992 11.065245,1.6860324 0 0 1 9.129349,-1.49273 11.065245,1.6860324 0 0 1 11.883182,0.94064 11.065245,1.6860324 0 0 1 -2.76658,1.99639"
       sodipodi:open="true" />
    <path
       style="fill:none;stroke:#000000;stroke-width:0.61814058;stroke-linecap:butt;stroke-linejoin:miter;stroke-miterlimit:4;stroke-dasharray:none;stroke-opacity:1;marker-end:url(#marker5912-6)"
       d="m 78.591173,110.33083 c 0,0 17.583905,2.15531 21.705027,21.633"
       id="path871-3"
       inkscape:connector-curvature="0"
       sodipodi:nodetypes="cc" />
  </g>
</svg>
